/* XPM */
static char * pencil_xpm[] = {
"16 16 5 1",
" 	c None",
".	c #2e85ce",
"X	c #cecece",
"o	c #5966c6",
"w	c #ffffff",
"                ",
"   ..........Xo ",
"   wwwwwwwwwwXoo",
"   ..........Xo ",
"                ",
"  ..........Xo  ",
"  wwwwwwwwwwXooo",
"  ..........Xo  ",
"                ",
" ..........Xo   ",
" wwwwwwwwwwXooo ",
" ..........Xo   ",
"                ",
"..........Xo    ",
"wwwwwwwwwwXooo  ",
"..........Xo    "};
